<?xml version="1.0" encoding="utf-8"?>
<!-- Generator: Adobe Illustrator 13.0.0, SVG Export Plug-In . SVG Version: 6.00 Build 14948)  -->
<!DOCTYPE svg PUBLIC "-//W3C//DTD SVG 1.1//EN" "http://www.w3.org/Graphics/SVG/1.1/DTD/svg11.dtd">
<svg version="1.1" id="Layer_1" xmlns="http://www.w3.org/2000/svg" xmlns:xlink="http://www.w3.org/1999/xlink" x="0px" y="0px"
	 width="190px" height="203px" viewBox="0 0 190 203" enable-background="new 0 0 190 203" xml:space="preserve">
<path fill="#E8231A" d="M95.635,0.425c4.768,4.065,21.296,16.92,39.742,16.92c14.398,0,33.956-9.87,39.272-12.705
	c1.759,1.755,13.592,13.586,15.442,15.439c-2.305,3.919-8.28,15.537-8.28,30.57c0,17.591,2.844,32.263,5.346,45.2
	c1.865,9.622,3.48,17.935,3.48,25.349c0,20.921-10.566,38.861-31.392,53.324c-17.716,12.306-39.331,19.778-53.629,24.721
	c-3.89,1.349-7.263,2.519-9.982,3.579c-2.72-1.058-6.083-2.228-9.965-3.571c-14.307-4.941-35.922-12.416-53.638-24.72
	c-20.833-14.466-31.395-32.412-31.395-53.333c0-7.414,1.609-15.727,3.473-25.349c2.51-12.937,5.345-27.608,5.345-45.2
	c0-15.033-5.976-26.651-8.274-30.57C3.032,18.229,14.866,6.396,16.62,4.64c5.316,2.835,24.872,12.705,39.273,12.705
	C74.333,17.345,90.867,4.49,95.635,0.425"/>
<path fill="#FFFFFF" d="M174.609,129.992c0-24.144-8.85-43.283-8.85-66.146c0-23.547,5.878-32.759,13.228-39.657
	c-2.594,6.063-5.511,18.35-5.511,30.836c0,20.538,8.833,46.143,8.833,66.146c0,16.94-6.901,32.725-20.963,44.125
	C170.024,155.811,174.609,142.851,174.609,129.992"/>
<polygon fill="#FFFFFF" points="41.28,50.404 47.803,49.024 47.803,77.362 57.93,75.254 57.93,81.187 41.28,84.696 "/>
<path fill="#FFFFFF" d="M107.067,127.886c-2.145,0.44-3.916-0.854-3.916-2.862c0-2.56,1.771-4.044,3.916-4.485
	c2.142-0.444,3.911,0.852,3.911,2.858C110.979,125.91,109.209,127.438,107.067,127.886"/>
<path fill="#FFFFFF" d="M139.034,149.725c-2.591,0.563-6.84-0.062-9.013-1.241l1.871-4.706c2.29,1.041,3.713,1.124,5.854,0.9
	c2.574-0.27,3.704-1.845,3.704-3.117c0-1.845-3.154-2.315-6.086-3.46c-2.551-0.997-4.934-2.82-4.934-5.866
	c0-4.865,3.001-7.901,7.908-8.916c2.867-0.599,6.113-0.105,8.039,0.906l-1.821,4.765c-2.348-0.688-3.722-0.889-5.71-0.479
	c-1.409,0.292-2.295,1.077-2.295,2.105c0,3.239,11.11,2.293,11.11,9.625C147.663,145.536,144.24,148.595,139.034,149.725"/>
<path fill="#FFFFFF" d="M119.658,111.09c-2.591,0.563-6.839-0.061-9.009-1.24l1.865-4.707c2.293,1.041,3.716,1.125,5.857,0.9
	c2.573-0.27,3.704-1.844,3.704-3.117c0-1.844-3.155-2.315-6.086-3.459c-2.551-0.997-4.931-2.821-4.931-5.867
	c0-4.865,2.998-7.902,7.905-8.916c2.867-0.599,6.112-0.105,8.038,0.907l-1.821,4.764c-2.347-0.688-3.721-0.889-5.709-0.48
	c-1.409,0.294-2.295,1.078-2.295,2.107c0,3.24,11.109,2.293,11.109,9.625C128.287,106.9,124.864,109.961,119.658,111.09"/>
<path fill="#FFFFFF" d="M147.816,42.267c-1.236-0.225-2.156-0.096-3.614,0.206c-1.621,0.334-2.926,1.47-3.975,3.108v18.541
	l-6.152,1.314V39.202l6.152-1.229l0.045,2.577c1.013-1.679,2.934-3.556,4.971-3.978c1.823-0.38,3.024-0.186,4.331,0.421
	L147.816,42.267z"/>
<path fill="#FFFFFF" d="M93.409,68.592c1.512-0.317,3.083-1.77,3.809-2.952l0.029-11.295c-0.831-0.953-2.219-2.115-3.938-1.755
	c-2.196,0.453-3.083,2.504-3.083,8.484C90.226,66.703,90.854,69.117,93.409,68.592 M92.468,47.375
	c2.351-0.465,3.902,0.549,4.779,1.426l-0.029-1.875l6.16-1.312v24.23c0,7.69-2.45,11.432-11.842,14.558l-2.037-4.605
	c6.417-2.46,7.719-4.259,7.719-8.911c-1.355,1.654-3.288,2.973-5.27,3.394c-4.431,0.944-7.986-2.646-7.986-11.714
	C83.962,54.731,86.466,48.575,92.468,47.375"/>
<path fill="#FFFFFF" d="M70.992,100.178c-2.193,0.456-3.082,2.502-3.082,8.48c0,5.631,0.659,8.184,3.184,7.516
	c2.295-0.607,3.246-2.565,3.783-3.579l0.022-11.025C74.068,100.616,72.716,99.82,70.992,100.178 M69.758,121.651
	c-4.479,1.239-8.109-2.432-8.109-11.497c0-7.838,1.674-13.843,8.504-15.188c1.837-0.36,3.548,0.043,4.747,0.97v-9.675l6.163-1.281
	v33.937l-6.163,1.316l0.203-2.938C74.02,119.423,72.5,120.891,69.758,121.651"/>
<path fill="#FFFFFF" d="M69.896,57.29c-2.298,0.474-3.549,2.6-3.86,6.438l7.774-1.571C73.491,59.08,72.559,56.735,69.896,57.29
	 M69.471,52.244c6.891-1.429,10.496,4.131,10.496,11.185c0,0.683-0.049,1.427-0.104,2.124l-13.826,2.926
	c0.258,3.914,1.981,5.322,4.378,4.826c2.193-0.46,3.077-1.377,4.28-3.146l4.387,2.176c-2.037,3.556-4.725,5.657-8.324,6.406
	c-6.786,1.41-10.933-3.193-10.933-11.127C59.824,58.993,63.52,53.484,69.471,52.244"/>
<path fill="#FFFFFF" d="M118.694,47.017c-2.301,0.474-3.551,2.601-3.864,6.438l7.777-1.452
	C122.288,48.926,121.353,46.462,118.694,47.017 M118.268,41.971c6.889-1.429,10.493,4.131,10.493,11.185
	c0,0.683-0.05,1.59-0.102,2.29l-13.829,2.76c0.259,3.914,1.981,5.322,4.381,4.826c2.193-0.459,3.077-1.377,4.28-3.146l4.388,2.176
	c-2.04,3.556-4.726,5.656-8.328,6.406c-6.78,1.409-10.932-3.193-10.932-11.128C108.619,48.72,112.314,43.211,118.268,41.971"/>
<path fill="#FFFFFF" d="M96.443,94.28c-2.305,0.474-3.554,2.6-3.864,6.438l7.773-1.542C100.037,96.096,99.098,93.726,96.443,94.28
	 M96.013,89.234c6.891-1.429,10.496,4.131,10.496,11.185c0,0.683-0.049,1.499-0.102,2.196l-13.828,2.854
	c0.258,3.912,1.98,5.322,4.379,4.824c2.191-0.458,3.079-1.375,4.281-3.146l4.387,2.177c-2.043,3.557-4.728,5.657-8.326,6.407
	c-6.784,1.408-10.933-3.193-10.933-11.128C86.367,95.983,90.06,90.474,96.013,89.234"/>
<path fill="#FFFFFF" d="M88.552,138.589c-2.298,0.473-3.547,2.6-3.86,6.438l7.773-1.606
	C92.146,140.343,91.213,138.034,88.552,138.589 M88.128,133.542c6.888-1.43,10.491,4.132,10.491,11.186
	c0,0.683-0.05,1.519-0.103,2.217l-13.825,2.832c0.255,3.913,1.979,5.322,4.378,4.825c2.193-0.458,3.077-1.376,4.279-3.145
	l4.387,2.176c-2.036,3.556-4.724,5.656-8.326,6.405c-6.784,1.408-10.93-3.192-10.93-11.127
	C78.479,140.292,82.175,134.783,88.128,133.542"/>
<polygon fill="#FFFFFF" points="73.325,163.124 73.325,128.888 66.803,130.23 66.803,143.788 58.45,145.523 58.45,131.947 
	51.932,133.289 51.932,167.555 58.45,166.202 58.45,151.5 66.803,149.766 66.803,164.475 "/>
<polygon fill="#FFFFFF" points="103.985,130.938 103.985,156.835 110.141,155.559 110.141,129.672 "/>
<polygon fill="#FFFFFF" points="117.925,153.931 124.078,152.659 124.078,118.44 117.925,119.632 "/>
</svg>
