<svg xmlns="http://www.w3.org/2000/svg" viewBox="0 0 210 55"><g fill="none" fill-rule="nonzero"><g fill="#8F278B"><path d="M.677 19.516H5.59l2.71 10.468 2.963-10.468h3.81l3.049 10.468 2.71-10.468h4.826L20.323 35.75h-4.319l-2.879-9.048-2.964 9.048H5.927zM27.944 35.75V19.516h4.572l.17 1.774a6.7 6.7 0 0 1 1.862-1.596c.762-.444 1.61-.621 2.625-.621.593 0 1.186.088 1.61.177q.76.266 1.27.532c.338.178.677.444.93.71.255.266.509.532.678.798.678-.71 1.44-1.242 2.287-1.685.931-.355 1.862-.621 2.879-.621 1.947 0 3.471.62 4.572 1.774 1.016 1.153 1.61 2.75 1.61 4.79v10.025h-4.743v-9.049c0-.976-.17-1.685-.593-2.218s-1.016-.798-1.863-.798c-.931 0-1.693.355-2.201.976-.593.71-.847 1.508-.847 2.572v8.694h-4.657v-9.226c0-.976-.17-1.685-.593-2.218s-1.016-.798-1.863-.798c-.931 0-1.609.355-2.201.976-.593.71-.847 1.508-.847 2.572v8.694zM56.056 27.589c0-1.154.17-2.307.593-3.371.424-1.065.932-1.952 1.694-2.75.762-.799 1.609-1.42 2.625-1.863a8.6 8.6 0 0 1 3.387-.71c1.27 0 2.37.266 3.387.71s1.863 1.064 2.625 1.863 1.27 1.685 1.693 2.75.593 2.217.593 3.37-.17 2.307-.593 3.372-1.016 1.951-1.693 2.75c-.762.798-1.609 1.419-2.625 1.863a8.3 8.3 0 0 1-3.387.71 8.3 8.3 0 0 1-3.387-.71c-1.016-.444-1.948-1.065-2.625-1.863-.762-.799-1.27-1.686-1.694-2.75-.339-1.065-.593-2.13-.593-3.371m4.658 0q0 .798.254 1.596c.17.533.423.976.677 1.42.339.443.678.71 1.186.976s1.016.354 1.609.354c.592 0 1.1-.088 1.608-.354.424-.266.847-.533 1.186-.976.339-.444.593-.887.677-1.42a5.2 5.2 0 0 0 .254-1.596 5.2 5.2 0 0 0-.254-1.597c-.17-.532-.423-.976-.677-1.42-.339-.443-.678-.71-1.186-.975-.423-.266-1.016-.355-1.608-.355s-1.101.089-1.61.355c-.507.266-.846.532-1.185.976-.339.354-.508.887-.677 1.419a5.2 5.2 0 0 0-.254 1.597"/></g><g fill="#8F278B"><path d="M131.673 35.75V19.516h4.573l.17 2.04a9.6 9.6 0 0 1 1.608-1.596c.678-.533 1.61-.799 2.71-.799.423 0 .762 0 1.1.089.255.089.593.089.847.266l-.762 4.436c-.508-.178-1.016-.267-1.693-.267-1.101 0-2.032.355-2.71 1.065s-1.016 1.685-1.016 3.016v8.073h-4.827zM143.698 31.226c0-.976.169-1.774.508-2.573q.507-1.064 1.524-1.863c.677-.532 1.355-.887 2.286-1.153.847-.266 1.778-.355 2.794-.355h1.694c.593 0 .931.089 1.1.089v-.355q0-.665-.253-1.064a2.6 2.6 0 0 0-.678-.71 3 3 0 0 0-.931-.444c-.339-.088-.762-.088-1.1-.088-1.017 0-1.948.177-2.626.443a8.6 8.6 0 0 0-1.778.976l-1.948-3.016a12 12 0 0 1 1.101-.798c.424-.267.932-.444 1.524-.71a30 30 0 0 1 1.948-.532 19 19 0 0 1 2.456-.178c2.37 0 4.149.621 5.25 1.952s1.693 3.105 1.693 5.322v9.492h-4.488l-.17-1.508a5.2 5.2 0 0 1-2.031 1.508 6.7 6.7 0 0 1-2.71.533c-.508 0-1.1-.09-1.694-.267a6 6 0 0 1-1.693-.798c-.508-.355-.932-.887-1.27-1.508q-.509-.932-.508-2.395m4.572-.71q0 1.863 2.286 1.863c.34 0 .763-.089 1.101-.177.339-.09.678-.267.932-.533.254-.177.508-.443.677-.798s.254-.71.254-1.153v-1.242c-.085 0-.339-.089-.593-.089-.338 0-.677-.089-1.1-.089q-2.033 0-2.795.533c-.423.532-.762 1.064-.762 1.685M161.31 27.855c0-1.42.255-2.75.763-3.815s1.1-2.04 1.947-2.75a7.3 7.3 0 0 1 2.625-1.596 7.8 7.8 0 0 1 2.795-.533 8.6 8.6 0 0 1 1.778.178c.423.088.847.266 1.27.443v-7.097h4.742V35.75h-4.488l-.17-1.597c-.507.621-1.1 1.065-1.862 1.508s-1.61.621-2.625.621c-.932 0-1.863-.177-2.625-.62-.847-.356-1.525-.977-2.117-1.686a7.8 7.8 0 0 1-1.44-2.661c-.423-.976-.593-2.13-.593-3.46m4.742.089c0 1.153.254 2.129.847 2.927s1.355 1.153 2.456 1.153c.508 0 1.016-.089 1.355-.266.423-.177.677-.443.931-.798s.424-.71.593-1.154c.085-.443.17-.887.17-1.33V24.04c-.34-.177-.678-.355-1.102-.443-.423-.089-.846-.178-1.44-.178-1.185 0-2.2.444-2.878 1.242-.593.887-.932 1.952-.932 3.283M180.109 31.226c0-.976.17-1.774.508-2.573q.508-1.064 1.524-1.863c.678-.532 1.355-.887 2.286-1.153.847-.266 1.779-.355 2.795-.355h1.693c.593 0 .932.089 1.101.089v-.355q0-.665-.254-1.064a2.6 2.6 0 0 0-.677-.71 3 3 0 0 0-.932-.444c-.338-.088-.762-.088-1.1-.088-1.017 0-1.948.177-2.626.443a8.6 8.6 0 0 0-1.778.976l-1.947-3.016a12 12 0 0 1 1.1-.798c.424-.267.932-.444 1.525-.71.592-.178 1.185-.355 1.947-.532a19 19 0 0 1 2.456-.178c2.37 0 4.149.621 5.25 1.952s1.693 3.105 1.693 5.322v9.492h-4.488l-.169-1.508a5.2 5.2 0 0 1-2.032 1.508 6.7 6.7 0 0 1-2.71.533q-.762 0-1.778-.267a6 6 0 0 1-1.694-.798c-.508-.355-.931-.887-1.27-1.508-.254-.621-.423-1.42-.423-2.395m4.572-.71q0 1.863 2.287 1.863c.338 0 .762-.089 1.1-.177.34-.09.678-.267.932-.533.254-.177.508-.443.677-.798s.254-.71.254-1.153v-1.242c-.084 0-.338-.089-.592-.089-.339 0-.678-.089-1.101-.089q-2.032 0-2.794.533c-.509.532-.763 1.064-.763 1.685M198.315 35.75V19.516h4.572l.17 2.04a9.6 9.6 0 0 1 1.608-1.596c.678-.533 1.61-.799 2.71-.799.423 0 .762 0 1.1.089.255.089.594.089.848.266l-.763 4.436c-.508-.178-1.016-.267-1.693-.267-1.1 0-2.032.355-2.71 1.065s-1.016 1.685-1.016 3.016v8.073h-4.826z"/></g><path fill="#8DD4F5" d="M83.407 28.21h-3.726c0-7.363 2.71-14.283 7.706-19.516l2.625 2.75c-4.234 4.524-6.605 10.467-6.605 16.766M122.952 46.04c-4.488 4.702-10.5 7.275-16.936 7.275-6.435 0-12.447-2.573-16.935-7.363l-.678.71c4.742 4.967 11.008 7.628 17.613 7.628s12.871-2.661 17.613-7.629zM122.02 11.444c-4.234-4.436-9.907-6.92-16.004-6.92V.621c7.028 0 13.633 2.839 18.63 8.073z"/><path fill="#E90089" d="m90.012 11.444-2.625-2.75C92.383 3.46 98.987.62 106.017.62v3.903c-6.013 0-11.686 2.484-16.005 6.92"/><path fill="#8DD4F5" d="m117.871 40.718-.677-.71c3.048-3.105 4.657-7.363 4.657-11.798 0-4.436-1.61-8.605-4.657-11.71-2.964-3.105-6.944-4.879-11.178-4.879v-.976c4.488 0 8.722 1.863 11.855 5.145 3.133 3.283 4.911 7.718 4.911 12.42 0 4.701-1.778 9.137-4.911 12.508"/><path fill="#E90089" d="m94.839 16.5-.678-.71c3.133-3.282 7.367-5.145 11.855-5.145v.976c-4.234 0-8.214 1.685-11.177 4.879"/><path fill="#8DD4F5" d="M99.75 28.21h-3.726c0-2.839 1.016-5.5 2.964-7.452l2.625 2.75a6.8 6.8 0 0 0-1.863 4.702M111.435 33.887c-1.439 1.508-3.387 2.395-5.419 2.395s-3.98-.887-5.504-2.395c-1.44-1.508-2.202-3.548-2.202-5.677h-.931c0 2.395.847 4.613 2.456 6.387 1.609 1.685 3.81 2.661 6.096 2.661s4.488-.976 6.097-2.661zM110.504 23.508c-1.185-1.242-2.794-1.952-4.488-1.952v-3.814c2.71 0 5.165 1.064 7.113 3.105z"/><path fill="#E90089" d="m101.613 23.508-2.625-2.75a9.7 9.7 0 0 1 7.028-3.016v3.903c-1.693 0-3.218.621-4.403 1.863"/><path fill="#8DD4F5" d="M116.177 38.944a13.95 13.95 0 0 1-10.16 4.346c-3.896 0-7.452-1.596-10.247-4.435-2.71-2.839-4.234-6.653-4.234-10.734H87.81c0 5.056 1.863 9.847 5.335 13.484s7.96 5.589 12.871 5.589c4.827 0 9.4-1.952 12.786-5.5z"/></g></svg>