<?xml version="1.0" encoding="UTF-8"?>
<svg id="Laag_1" data-name="Laag 1" xmlns="http://www.w3.org/2000/svg" viewBox="0 0 234.49 61.57">
  <defs>
    <style>
      .cls-1 {
        fill: #8a8a5e;
      }

      .cls-1, .cls-2, .cls-3 {
        stroke-width: 0px;
      }

      .cls-2 {
        fill: #6f0141;
      }

      .cls-3 {
        fill: #454600;
      }
    </style>
  </defs>
  <g>
    <path class="cls-3" d="m233.82,40.18c.17,2.61.41-.81.62-3.75l-.66-2.66.04,6.4Z"/>
    <path class="cls-3" d="m234,25.79l-.69-7.24.33,5.23c-.35,5.81-.72-.77-.85-2.96.17,9.51.82,3.46,1.2,4.98Z"/>
    <path class="cls-3" d="m233.47,11.54c.02-2.32-.07-3.17-.21-3.16-.11-.04-.27.79-.33,1.76.19.31.4,3.35.54,1.4Z"/>
    <path class="cls-3" d="m17.68,46.39c-1.3-.09-2.84-.16-2.62-.28-1.46.13-1.76.23,2.62.28Z"/>
    <path class="cls-3" d="m15.06,46.11c.28-.02.58-.05.94-.08-.29.01-.54.02-.87.03-.09.02-.04.03-.06.04Z"/>
    <path class="cls-3" d="m46.83,7.99c5.23-.33,8.16-.12,13.1-.26l2.76.55c5.35-.18,2.36-.47,6.25-.75,4.88.35,15.18.03,17.49.05,1.61.26-2,.35-2.78.51,6.27-.19,5.83-.72,13.63-.72l.13.15c18.63-.79,42.24-.58,62.95-1.08-1.4-.03-1.05-.15-1.59-.26,21.87-.2,47.11-.23,64.4-1.54-11.82.14-31.84-.73-43.89.25-4.46-.39-11.33.18-13.18-.38-17.19-.24-24.18.74-40.7.76-2.37-.1-1.22-.37-1.9-.63l13.1-.26-7.99-.22c3.45-.25,11.87-.07,12.83-.56-11.44.6-29.74.13-39.73.83,4.7.13,10.56-.02,16.11.02,2.44.18,6.23.31,5.98.57-15.89.77-29.07.39-45.4.64-4.09.06-9.64.02-10.32-.24,2.68-.09.66-.31,2.86-.43-5.79.22-.58.95-8.95.85l1.07-.92c-3.33.97-10.24-.17-16.19.4-2.14-.37,1.81-.58,6.39-.6-5.2-.16-5.67.37-9.82.36l3.93-.78c-4.42.75-7.92-.14-10.42-.39-.3.19,2.03.78-3.51.74-2.38-.1-1.16-.3-1.72-.41-.31.19-2.3.54-5.96.56-.67-.26,2.43-.39,2.67-.66-2.76.02-5.01.07-7.01-.15-4.88.22.32.38-2.67.66-7.5-.19-.75-.91-3.51-1.46,5.65-.37,12.91-.49,15.94-.7l-10.83.21c.66-.31-7.33-.53-1.61-.82-2.7-.07-5.54-.1-8.44-.11-.73,0-1.46,0-2.19,0h-.58c-.25.02-.5.02-.75.05-.5.05-1,.14-1.49.28C3.36,2.64,1.41,3.93.46,6.16c-.23.54-.38,1.14-.44,1.74-.05.71-.02.94-.02,1.34.01.74.03,1.47.04,2.2.03,1.46.06,2.91.09,4.33.07,2.85.13,5.6.19,8.19.11-1.47.17-3.35.36-3.05.18,5.36-.2,4.76-.42,5.86.21,3.96.74,3.52,1.13,5.95-.11,2.04-.18,3.65-.23,5.02-.02.68-.04,1.31-.06,1.9-.03.5-.03,1.38.19,2.05.43,1.39,1.36,2.5,2.64,3.3.64.4,1.39.73,2.25.94.43.11.89.18,1.38.22.4.04.81.07,1.25.11l-.43-.53c4.93.43,5.66-.37,10.97-.06.29.11-1.74.25-3.38.37,4.71-.17,4.34.45,8.93.24l-3.64.59c3.66-.02,9.03-.2,7.14.3,6.39-.6,17.61-.37,25.59-.71l-.53.46c4.13-.55,15.17.03,18.76-.64l.61.19,8.22-.61c3.72.05,2.46.74,2.76.55,8.17-.12,14.57-.16,19.82.08,1.32-.61,9.91-.78,16.75-.85,32.92.38,68.28-.2,98.9-.9,2.29-.01,5.01-.19,7.88-.4.72-.06,1.45-.07,2.11-.24.67-.17,1.3-.45,1.84-.83,1.1-.75,1.76-1.96,1.67-3.06-.07,1.37-.96,2.24-1.76,2.74-.83.51-1.66.73-2.49.8-1.83.08-3.77.14-7.2.15-5.18-.16-7.09-.79-11.55-1.18l2.27.52c-7,.42-4.82-.28-10.35.25l.23-.84c-1.95.43-6.83.08-8.84-.14l-1.81.58c-4.41-.32-7.28-.45-8.62-.97l.43.53c-1.66-.33-16.95.06-11.72-.84-1.28.12-2.44.39-5.25.33l-.43-.53c-4.04.14-8.54.24-9.71-.06,2.19-.13,2.92-.36,3.64-.59-17.07-.09-3.61,1.73-18.73,1.77l.18-.34-3.84.36-4.02-.43c-5.45,1.17-21.22-.11-30.35.51-3.59.1-8.32-.6-15.14-.52l.44.53c-5.51-.54-26-.87-31.14-2.1-5.17.41.54.11.43.53-10.1.55-10.8-.28-16.09-.59-6.22.26,4.76.2,1.41.6-9.53-.4-7.74.65-19.5.3-1.17-.3,3.04-.21,4.25-.4-4.14.27-10.07.32-16.5.32-.8,0-1.62,0-2.43,0h-.61s-.31,0-.31,0h-.18c-.22-.01-.43-.05-.64-.1-.83-.18-1.39-.76-1.44-1.02-.04-.09-.01-.06-.03-.24v-1.23c0-.82,0-1.64,0-2.44,0-1.62-.02-3.2-.02-4.74.07-3.52.16-7.46.25-11.65.03-2.09.07-4.25.11-6.45.02-1.1.04-2.21.05-3.32,0-.56.02-1.12.03-1.68v-.09s0,0,0,0h0s.01-.01,0-.02c0,0,0-.02.03-.04.05-.08.28-.33.68-.49.2-.08.43-.13.68-.16.12-.02.25-.02.38-.02h.8c2.27.05,4.54.09,6.78.13,4.48.1,8.87.21,12.99.3l.31-.19c6.84.49,14.26.03,22.26.25l-3.91-.28Z"/>
    <path class="cls-3" d="m145.1,3l-1.31-.45-7.55.31c3.06.36,4.65.05,8.86.14Z"/>
    <polygon class="cls-3" points="143.47 4.37 147.42 4.16 141.03 4.2 143.47 4.37"/>
    <polygon class="cls-3" points="47.8 3.66 48.78 3.73 63.17 3.35 47.8 3.66"/>
    <path class="cls-3" d="m17.15,46.85c-1.65.24-4.01.14-5.72.3l6.7-.23-.97-.07Z"/>
    <path class="cls-3" d="m82.05,48.68c2.55-.81,5.07,0,1.68-.73-4.01.14-.53.46-1.68.73Z"/>
    <path class="cls-3" d="m97.14,47.5c-2.31-.02-3.59.1-4.86.22,3.05.36,3.15-.06,4.86-.22Z"/>
  </g>
  <g>
    <path class="cls-3" d="m.67,8.5c-.17-2.61-.41.81-.62,3.75l.66,2.66-.04-6.4Z"/>
    <path class="cls-3" d="m.49,22.89l.69,7.24-.33-5.23c.35-5.81.72.77.85,2.96-.17-9.51-.82-3.46-1.2-4.98Z"/>
    <path class="cls-3" d="m1.03,37.14c-.02,2.32.07,3.17.21,3.16.11.04.27-.79.33-1.76-.19-.31-.4-3.35-.54-1.4Z"/>
    <path class="cls-3" d="m216.82,2.29c1.3.09,2.84.16,2.62.28,1.46-.13,1.76-.23-2.62-.28Z"/>
    <path class="cls-3" d="m219.44,2.57c-.28.02-.58.05-.94.08.29-.01.54-.02.87-.03.09-.02.04-.03.06-.04Z"/>
    <path class="cls-3" d="m187.67,40.69c-5.23.33-8.16.12-13.1.26l-2.76-.55c-5.35.18-2.36.47-6.25.75-4.88-.35-15.18-.03-17.49-.05-1.61-.26,2-.35,2.78-.51-6.27.19-5.83.72-13.63.72l-.13-.15c-18.63.79-42.24.58-62.95,1.08,1.4.03,1.05.15,1.59.26-21.87.2-47.11.23-64.4,1.54,11.82-.14,31.84.73,43.89-.25,4.46.39,11.33-.18,13.18.38,17.19.24,24.18-.74,40.7-.76,2.37.1,1.22.37,1.9.63l-13.1.26,7.99.22c-3.45.25-11.87.07-12.83.56,11.44-.6,29.74-.13,39.73-.83-4.7-.13-10.56.02-16.11-.02-2.44-.18-6.23-.31-5.98-.57,15.89-.77,29.07-.39,45.4-.64,4.09-.06,9.64-.02,10.32.24-2.68.09-.66.31-2.86.43,5.79-.22.58-.95,8.95-.85l-1.07.92c3.33-.97,10.24.17,16.19-.4,2.14.37-1.81.58-6.39.6,5.2.16,5.67-.37,9.82-.36l-3.93.78c4.42-.75,7.92.14,10.42.39.3-.19-2.03-.78,3.51-.74,2.38.1,1.16.3,1.72.41.31-.19,2.3-.54,5.96-.56.67.26-2.43.39-2.67.66,2.76-.02,5.01-.07,7.01.15,4.88-.22-.32-.38,2.67-.66,7.5.19.75.91,3.51,1.46-5.65.37-12.91.49-15.94.7l10.83-.21c-.66.31,7.33.53,1.61.82,2.7.07,5.54.1,8.44.11.73,0,1.46,0,2.19,0h.58c.25-.02.5-.02.75-.05.5-.05,1-.14,1.49-.28,1.93-.55,3.89-1.84,4.83-4.07.23-.54.38-1.14.44-1.74.05-.71.02-.94.02-1.34-.01-.74-.03-1.47-.04-2.2-.03-1.46-.06-2.91-.09-4.33-.07-2.85-.13-5.6-.19-8.19-.11,1.47-.17,3.35-.36,3.05-.18-5.36.2-4.76.42-5.86-.21-3.96-.74-3.52-1.13-5.95.11-2.04.18-3.65.23-5.02.02-.68.04-1.31.06-1.9.03-.5.03-1.38-.19-2.05-.43-1.39-1.36-2.5-2.64-3.3-.64-.4-1.39-.73-2.25-.94-.43-.11-.89-.18-1.38-.22-.4-.04-.81-.07-1.25-.11l.43.53c-4.93-.43-5.66.37-10.97.06-.29-.11,1.74-.25,3.38-.37-4.71.17-4.34-.45-8.93-.24l3.64-.59c-3.66.02-9.03.2-7.14-.3-6.39.6-17.61.37-25.59.71l.53-.46c-4.13.55-15.17-.03-18.76.64l-.61-.19-8.22.61c-3.72-.05-2.46-.74-2.76-.55-8.17.12-14.57.16-19.82-.08-1.32.61-9.91.78-16.75.85-32.92-.38-68.28.2-98.9.9-2.29.01-5.01.19-7.88.4-.72.06-1.45.07-2.11.24-.67.17-1.3.45-1.84.83-1.1.75-1.76,1.96-1.67,3.06.07-1.37.96-2.24,1.76-2.74.83-.51,1.66-.73,2.49-.8,1.83-.08,3.77-.14,7.2-.15,5.18.16,7.09.79,11.55,1.18l-2.27-.52c7-.42,4.82.28,10.35-.25l-.23.84c1.95-.43,6.83-.08,8.84.14l1.81-.58c4.41.32,7.28.45,8.62.97l-.43-.53c1.66.33,16.95-.06,11.72.84,1.28-.12,2.44-.39,5.25-.33l.43.53c4.04-.14,8.54-.24,9.71.06-2.19.13-2.92.36-3.64.59,17.07.09,3.61-1.73,18.73-1.77l-.18.34,3.84-.36,4.02.43c5.45-1.17,21.22.11,30.35-.51,3.59-.1,8.32.6,15.14.52l-.44-.53c5.51.54,26,.87,31.14,2.1,5.17-.41-.54-.11-.43-.53,10.1-.55,10.8.28,16.09.59,6.22-.26-4.76-.2-1.41-.6,9.53.4,7.74-.65,19.5-.3,1.17.3-3.04.21-4.25.4,4.14-.27,10.07-.32,16.5-.32.8,0,1.62,0,2.43,0h.61s.31,0,.31,0h.18c.22.01.43.05.64.1.83.18,1.39.76,1.44,1.02.04.09.01.06.03.24v1.23c0,.82,0,1.64,0,2.44,0,1.62.02,3.2.02,4.74-.07,3.52-.16,7.46-.25,11.65-.03,2.09-.07,4.25-.11,6.45-.02,1.1-.04,2.21-.05,3.32,0,.56-.02,1.12-.03,1.68v.09s0,0,0,0h0s-.01.01,0,.02c0,0,0,.02-.03.04-.05.08-.28.33-.68.49-.2.08-.43.13-.68.16-.12.02-.25.02-.38.02h-.8c-2.27-.05-4.54-.09-6.78-.13-4.48-.1-8.87-.21-12.99-.3l-.31.19c-6.84-.49-14.26-.03-22.26-.25l3.91.28Z"/>
    <path class="cls-3" d="m89.4,45.68l1.31.45,7.55-.31c-3.06-.36-4.65-.05-8.86-.14Z"/>
    <polygon class="cls-3" points="91.02 44.31 87.07 44.52 93.46 44.48 91.02 44.31"/>
    <polygon class="cls-3" points="186.69 45.02 185.72 44.95 171.33 45.33 186.69 45.02"/>
    <path class="cls-3" d="m217.35,1.83c1.65-.24,4.01-.14,5.72-.3l-6.7.23.97.07Z"/>
    <path class="cls-3" d="m152.44,0c-2.55.81-5.07,0-1.68.73,4.01-.14.53-.46,1.68-.73Z"/>
    <path class="cls-3" d="m137.36,1.18c2.31.02,3.59-.1,4.86-.22-3.05-.36-3.15.06-4.86.22Z"/>
  </g>
  <g>
    <path class="cls-1" d="m23.53,53.97v6.65h1.05c.14,0,.17.02.17.17v.45c0,.14-.02.17-.17.17h-3.1c-.14,0-.16-.02-.16-.17v-.45c0-.15.01-.17.16-.17h1.05v-6.65h-1.05c-.14,0-.16-.02-.16-.17v-.45c0-.15.01-.17.16-.17h3.1c.14,0,.17.02.17.17v.45c0,.14-.02.17-.17.17h-1.05Z"/>
    <path class="cls-1" d="m30.13,59.88c-.06-.45-.08-.71-.08-1.04v-5.5c0-.15.02-.17.17-.17h.55c.14,0,.17.02.17.17v7.88c0,.14-.02.17-.17.17h-.65c-.08,0-.15-.04-.19-.12l-2.75-5.92c-.13-.34-.22-.58-.36-1.13l.04.27c.06.31.08.61.08.9v5.83c0,.14-.02.17-.17.17h-.53c-.14,0-.16-.02-.16-.17v-7.88c0-.15.01-.17.16-.17h.74c.11,0,.14.02.19.11l2.64,5.59c.12.24.23.58.33,1Z"/>
    <path class="cls-1" d="m34.04,60.55h3.03c.14,0,.17.01.17.1,0,.02,0,.05-.02.11l-.18.53c-.04.08-.11.12-.18.12h-3.63c-.14,0-.17-.02-.17-.17v-7.88c0-.15.02-.17.17-.17h.65c.14,0,.17.02.17.17v7.2Z"/>
    <path class="cls-1" d="m43.26,57.28c0,2.81-.94,4.29-2.77,4.29-1.74,0-2.62-1.43-2.62-4.24s.94-4.3,2.76-4.3,2.63,1.43,2.63,4.25Zm-1.07.05c0-2.42-.48-3.51-1.59-3.51-1.17,0-1.66,1.02-1.66,3.45s.52,3.5,1.62,3.5c1.17,0,1.64-1,1.64-3.44Z"/>
    <path class="cls-1" d="m49.92,57.28c0,2.81-.94,4.29-2.77,4.29-1.74,0-2.62-1.43-2.62-4.24s.94-4.3,2.76-4.3,2.63,1.43,2.63,4.25Zm-1.07.05c0-2.42-.48-3.51-1.59-3.51-1.17,0-1.66,1.02-1.66,3.45s.52,3.5,1.62,3.5c1.17,0,1.64-1,1.64-3.44Z"/>
    <path class="cls-1" d="m52.68,57.94v3.29c0,.14-.02.17-.17.17h-.65c-.14,0-.17-.02-.17-.17v-7.88c0-.15.02-.17.17-.17h1.84c1.74,0,2.43.64,2.43,2.19,0,1.66-.9,2.57-2.6,2.57h-.86Zm0-.88h.8c1.17,0,1.66-.49,1.66-1.64,0-1.07-.37-1.42-1.52-1.42h-.94v3.06Z"/>
    <path class="cls-1" d="m56.76,58.62v-.58c0-.12.02-.16.17-.16h2.99c.14,0,.17.04.17.16v.58c0,.14-.02.16-.17.16h-2.99c-.14,0-.17-.01-.17-.16Z"/>
    <path class="cls-1" d="m65.05,54.03v2.7h2.35c.14,0,.17.02.17.17v.47c0,.15-.02.17-.17.17h-2.35v3.01h2.87c.14,0,.16.01.16.16v.53c0,.14-.01.17-.16.17h-3.69c-.14,0-.17-.02-.17-.17v-7.88c0-.15.02-.17.17-.17h3.7c.11,0,.14.02.14.08,0,.02,0,.06-.01.11l-.19.53c-.01.08-.07.12-.16.12h-2.66Z"/>
    <path class="cls-1" d="m73.58,59.88c-.06-.45-.08-.71-.08-1.04v-5.5c0-.15.02-.17.17-.17h.55c.14,0,.17.02.17.17v7.88c0,.14-.02.17-.17.17h-.65c-.08,0-.14-.04-.19-.12l-2.75-5.92c-.13-.34-.22-.58-.36-1.13l.04.27c.06.31.08.61.08.9v5.83c0,.14-.02.17-.17.17h-.53c-.14,0-.16-.02-.16-.17v-7.88c0-.15.01-.17.16-.17h.74c.11,0,.14.02.19.11l2.64,5.59c.12.24.23.58.33,1Z"/>
    <path class="cls-1" d="m82.25,57.1c1,.26,1.49.94,1.49,2.02,0,1.6-.88,2.28-2.93,2.28h-1.76c-.14,0-.17-.02-.17-.17v-7.88c0-.15.02-.17.17-.17h1.96c1.66,0,2.4.6,2.4,1.95,0,.9-.41,1.59-1.17,1.96Zm-2.37-3.11v2.82h.88c1.11,0,1.59-.47,1.59-1.58,0-.89-.39-1.24-1.35-1.24h-1.12Zm0,3.63v2.99h1.18c1.08,0,1.63-.49,1.63-1.49s-.6-1.49-1.69-1.49h-1.12Z"/>
    <path class="cls-1" d="m86.89,53.97v6.65h1.05c.14,0,.17.02.17.17v.45c0,.14-.02.17-.17.17h-3.1c-.14,0-.16-.02-.16-.17v-.45c0-.15.01-.17.16-.17h1.05v-6.65h-1.05c-.14,0-.16-.02-.16-.17v-.45c0-.15.01-.17.16-.17h3.1c.14,0,.17.02.17.17v.45c0,.14-.02.17-.17.17h-1.05Z"/>
    <path class="cls-1" d="m91.7,54h-2.06c-.14,0-.17-.01-.17-.16v-.49c0-.15.02-.17.17-.17h2.88c.14,0,.17.02.17.17v6.03c0,1.41-.76,2.19-2.13,2.19s-2.05-.81-2.05-2.3c0-.18.02-.22.11-.22h.71c.06,0,.11.04.11.12v.14c0,.96.39,1.45,1.12,1.45.8,0,1.14-.42,1.14-1.39v-5.38Z"/>
    <path class="cls-1" d="m98.22,57.1c1,.26,1.49.94,1.49,2.02,0,1.6-.88,2.28-2.93,2.28h-1.76c-.14,0-.17-.02-.17-.17v-7.88c0-.15.02-.17.17-.17h1.96c1.66,0,2.4.6,2.4,1.95,0,.9-.41,1.59-1.17,1.96Zm-2.37-3.11v2.82h.88c1.11,0,1.59-.47,1.59-1.58,0-.89-.39-1.24-1.35-1.24h-1.12Zm0,3.63v2.99h1.18c1.08,0,1.63-.49,1.63-1.49s-.6-1.49-1.69-1.49h-1.12Z"/>
    <path class="cls-1" d="m102.5,54.03v2.7h2.35c.15,0,.17.02.17.17v.47c0,.15-.02.17-.17.17h-2.35v3.01h2.87c.14,0,.16.01.16.16v.53c0,.14-.01.17-.16.17h-3.69c-.14,0-.17-.02-.17-.17v-7.88c0-.15.02-.17.17-.17h3.7c.11,0,.14.02.14.08,0,.02,0,.06-.01.11l-.19.53c-.01.08-.07.12-.16.12h-2.66Z"/>
    <path class="cls-1" d="m108.06,60.55h3.03c.14,0,.17.01.17.1,0,.02,0,.05-.02.11l-.18.53c-.04.08-.11.12-.18.12h-3.63c-.14,0-.17-.02-.17-.17v-7.88c0-.15.02-.17.17-.17h.65c.14,0,.17.02.17.17v7.2Z"/>
    <path class="cls-1" d="m113.38,56.71h3.05v-3.36c0-.15.02-.17.17-.17h.65c.14,0,.17.02.17.17v7.88c0,.14-.02.17-.17.17h-.65c-.14,0-.17-.02-.17-.17v-3.7h-3.05v3.7c0,.14-.02.17-.17.17h-.65c-.14,0-.17-.02-.17-.17v-7.88c0-.15.02-.17.17-.17h.65c.14,0,.17.02.17.17v3.36Z"/>
    <path class="cls-1" d="m119.76,53.18h.65c.14,0,.17.02.17.17v5.82c0,1.14.43,1.59,1.52,1.59s1.64-.51,1.64-1.59v-5.82c0-.15.01-.17.16-.17h.61c.14,0,.17.02.17.17v5.83c0,1.57-.88,2.39-2.58,2.39s-2.51-.78-2.51-2.39v-5.83c0-.15.02-.17.17-.17Z"/>
    <path class="cls-1" d="m128.2,53.97v6.65h1.05c.14,0,.17.02.17.17v.45c0,.14-.03.17-.17.17h-3.1c-.14,0-.16-.02-.16-.17v-.45c0-.15.01-.17.16-.17h1.05v-6.65h-1.05c-.14,0-.16-.02-.16-.17v-.45c0-.15.01-.17.16-.17h3.1c.14,0,.17.02.17.17v.45c0,.14-.03.17-.17.17h-1.05Z"/>
    <path class="cls-1" d="m130.19,60.76l.22-.59s.07-.06.08-.06c.02,0,.06.02.08.02.04.01.08.04.12.06.58.33,1.23.51,1.76.51.89,0,1.46-.53,1.46-1.37,0-.71-.33-1.08-1.49-1.76-1.64-.94-2.01-1.37-2.01-2.4,0-1.27.99-2.15,2.36-2.15.65,0,1.4.18,1.91.49.06.04.11.1.11.13,0,.02,0,.05-.02.11l-.23.53s-.04.06-.08.06c-.01,0-.06,0-.1-.01-.78-.4-1.07-.48-1.6-.48-.82,0-1.31.46-1.31,1.19,0,.61.25.93,1.17,1.46l.76.45c1.19.7,1.58,1.28,1.58,2.25,0,1.41-1,2.36-2.52,2.36-.7,0-1.5-.21-2.11-.54-.11-.06-.14-.12-.14-.18,0-.02,0-.06.02-.08Z"/>
    <path class="cls-1" d="m140.72,60.5c.06-.39.14-.74.18-.92l1.58-6.38c.02-.1.05-.12.11-.12.01,0,.04,0,.1.02l.64.13c.1.02.14.07.14.11,0,.02,0,.04-.02.06v.04l-2.13,7.81c-.01.12-.04.14-.16.14h-.84c-.14,0-.14-.02-.18-.14l-2.1-7.81v-.04s-.01-.02-.01-.04c0-.06.01-.08.13-.13l.69-.13v-.02h.07c.06,0,.08.04.11.14l1.52,6.33c.04.17.07.39.14.67l.04.26Z"/>
    <path class="cls-1" d="m149.65,57.28c0,2.81-.94,4.29-2.77,4.29-1.74,0-2.62-1.43-2.62-4.24s.94-4.3,2.76-4.3,2.63,1.43,2.63,4.25Zm-1.07.05c0-2.42-.48-3.51-1.59-3.51-1.17,0-1.66,1.02-1.66,3.45s.52,3.5,1.62,3.5c1.17,0,1.64-1,1.64-3.44Z"/>
    <path class="cls-1" d="m156.3,57.28c0,2.81-.94,4.29-2.77,4.29-1.74,0-2.62-1.43-2.62-4.24s.94-4.3,2.76-4.3,2.63,1.43,2.63,4.25Zm-1.07.05c0-2.42-.48-3.51-1.59-3.51-1.17,0-1.66,1.02-1.66,3.45s.52,3.5,1.62,3.5c1.17,0,1.64-1,1.64-3.44Z"/>
    <path class="cls-1" d="m160.94,57.57l1.99,3.59s.02.04.02.06c.01.01.01.04.01.06,0,.06-.04.08-.13.1l-.72.14h-.06c-.06,0-.11-.02-.14-.1l-1.93-3.75h-.92v3.56c0,.14-.02.17-.17.17h-.65c-.15,0-.17-.02-.17-.17v-7.88c0-.15.02-.17.17-.17h1.84c1.72,0,2.41.6,2.41,2.05,0,1.16-.57,2.01-1.55,2.34Zm-1.88-.65h.92c1.01,0,1.52-.53,1.52-1.6,0-1-.39-1.35-1.47-1.35h-.96v2.95Z"/>
    <path class="cls-1" d="m168.02,53.97v6.65h1.05c.14,0,.17.02.17.17v.45c0,.14-.02.17-.17.17h-3.1c-.14,0-.16-.02-.16-.17v-.45c0-.15.01-.17.16-.17h1.05v-6.65h-1.05c-.14,0-.16-.02-.16-.17v-.45c0-.15.01-.17.16-.17h3.1c.14,0,.17.02.17.17v.45c0,.14-.02.17-.17.17h-1.05Z"/>
    <path class="cls-1" d="m171.65,54.03v2.7h2.35c.14,0,.17.02.17.17v.47c0,.15-.02.17-.17.17h-2.35v3.01h2.87c.14,0,.16.01.16.16v.53c0,.14-.01.17-.16.17h-3.69c-.14,0-.17-.02-.17-.17v-7.88c0-.15.02-.17.17-.17h3.7c.11,0,.14.02.14.08,0,.02,0,.06-.01.11l-.19.53c-.01.08-.07.12-.16.12h-2.66Z"/>
    <path class="cls-1" d="m176.21,61.23v-7.88c0-.15.02-.17.17-.17h1.24c1.25,0,1.92.19,2.45.72.7.7,1.03,1.76,1.03,3.23,0,2.86-1.11,4.27-3.34,4.27h-1.37c-.14,0-.17-.02-.17-.17Zm.99-.69h.61c1.09,0,1.55-.27,1.88-1.07.25-.57.35-1.27.35-2.31,0-2.35-.58-3.13-2.35-3.13h-.49v6.52Z"/>
    <path class="cls-1" d="m183.86,54.03v2.7h2.35c.14,0,.17.02.17.17v.47c0,.15-.02.17-.17.17h-2.35v3.01h2.87c.14,0,.16.01.16.16v.53c0,.14-.01.17-.16.17h-3.69c-.14,0-.17-.02-.17-.17v-7.88c0-.15.02-.17.17-.17h3.7c.11,0,.14.02.14.08,0,.02,0,.06-.01.11l-.19.53c-.01.08-.07.12-.16.12h-2.66Z"/>
    <path class="cls-1" d="m191.29,57.57l1.99,3.59s.02.04.02.06c.01.01.01.04.01.06,0,.06-.04.08-.13.1l-.72.14h-.06c-.06,0-.11-.02-.14-.1l-1.93-3.75h-.92v3.56c0,.14-.02.17-.17.17h-.65c-.14,0-.17-.02-.17-.17v-7.88c0-.15.02-.17.17-.17h1.84c1.72,0,2.41.6,2.41,2.05,0,1.16-.57,2.01-1.55,2.34Zm-1.88-.65h.92c1.01,0,1.52-.53,1.52-1.6,0-1-.39-1.35-1.47-1.35h-.96v2.95Z"/>
    <path class="cls-1" d="m195.62,54.03v2.7h2.35c.14,0,.17.02.17.17v.47c0,.15-.02.17-.17.17h-2.35v3.01h2.87c.14,0,.16.01.16.16v.53c0,.14-.01.17-.16.17h-3.69c-.14,0-.17-.02-.17-.17v-7.88c0-.15.02-.17.17-.17h3.7c.11,0,.14.02.14.08,0,.02,0,.06-.01.11l-.19.53c-.01.08-.07.12-.16.12h-2.66Z"/>
    <path class="cls-1" d="m201.18,54.03v2.7h2.35c.14,0,.17.02.17.17v.47c0,.15-.02.17-.17.17h-2.35v3.01h2.87c.14,0,.16.01.16.16v.53c0,.14-.01.17-.16.17h-3.69c-.14,0-.17-.02-.17-.17v-7.88c0-.15.02-.17.17-.17h3.7c.11,0,.14.02.14.08,0,.02,0,.06-.01.11l-.19.53c-.01.08-.07.12-.16.12h-2.66Z"/>
    <path class="cls-1" d="m209.7,59.88c-.06-.45-.08-.71-.08-1.04v-5.5c0-.15.02-.17.17-.17h.55c.14,0,.17.02.17.17v7.88c0,.14-.02.17-.17.17h-.65c-.08,0-.14-.04-.19-.12l-2.75-5.92c-.13-.34-.22-.58-.36-1.13l.04.27c.06.31.08.61.08.9v5.83c0,.14-.02.17-.17.17h-.53c-.14,0-.16-.02-.16-.17v-7.88c0-.15.01-.17.16-.17h.74c.11,0,.14.02.19.11l2.64,5.59c.12.24.23.58.32,1Z"/>
    <path class="cls-1" d="m214.33,60.73c0,.47-.38.84-.83.84-.48,0-.87-.37-.87-.84s.39-.84.87-.84c.45,0,.83.4.83.84Zm-1.47-7.38v-.04c0-.11.04-.13.16-.13h.9c.12,0,.17.02.17.13v.04l-.27,4.71c-.02.14-.05.17-.17.17h-.35c-.14,0-.16-.02-.16-.17l-.29-4.71Z"/>
  </g>
  <g>
    <path class="cls-2" d="m18.08,16.73v15.68h1.66c.5,0,.62.06.62.64v1.76c0,.57-.12.64-.62.64h-7.22c-.56,0-.62-.06-.62-.64v-1.76c0-.57.06-.64.62-.64h1.66v-15.68h-1.66c-.56,0-.62-.13-.62-.67v-1.72c0-.61.06-.67.62-.67h7.22c.5,0,.62.06.62.67v1.72c0,.54-.12.67-.62.67h-1.66Z"/>
    <path class="cls-2" d="m27.78,21.39c1.72-1.63,2.81-2.17,4.52-2.17,2.66,0,3.82,1.5,3.82,4.98v8.3h1.51c.33,0,.41.06.41.45v2.04c0,.35-.09.45-.41.45h-4.76c-.41,0-.5-.06-.5-.54v-9.77c0-1.88-.44-2.65-1.6-2.65-.86,0-1.57.38-2.51,1.31v8.72h1.51c.3,0,.38.06.38.45v2.04c0,.38-.09.45-.38.45h-6.8c-.3,0-.41-.06-.41-.45v-2.04c0-.38.12-.45.41-.45h1.51v-7.09c0-1.28-.06-1.76-.24-2.71h-1.48c-.3,0-.38-.06-.38-.45v-2.08c0-.32.09-.42.38-.42h4.08c.5,0,.65.22.95,1.47v.16Z"/>
    <path class="cls-2" d="m54.76,34.26c-1.39,1.25-2.6,1.72-4.17,1.72-3.25,0-5.03-2.78-5.03-7.76,0-5.97,1.92-9,5.68-9,1.21,0,1.92.22,2.99.93v-4.5h-1.63c-.3,0-.38-.13-.38-.45v-2.08c0-.38.09-.48.38-.48h4.94c.35,0,.38.1.38.48v16.67c0,1.25.12,1.92.33,2.71h1.36c.3,0,.38.06.38.45v2.04c0,.38-.09.45-.38.45h-4.02c-.47,0-.56-.1-.83-1.18Zm-.53-11.24c-.77-.45-1.33-.61-2.13-.61-2.16,0-2.81,1.25-2.81,5.27,0,3.8.65,5.21,2.45,5.21,1.06,0,1.72-.32,2.48-1.15v-8.72Z"/>
    <path class="cls-2" d="m65.08,28.67c.06,2.71,1.09,3.99,3.22,3.99,1.09,0,2.25-.32,3.37-.96.15-.06.3-.13.38-.13.15,0,.27.13.35.29l.71,1.88c.09.16.09.29.09.35,0,.42-.38.7-1.6,1.18-1.21.48-2.37.7-3.67.7-4.29,0-6.6-2.94-6.6-8.24s2.57-8.53,6.45-8.53,5.83,2.94,5.83,8.69c0,.64-.09.77-.65.77h-7.9Zm.06-2.94h4.61c-.09-2.62-.65-3.64-2.16-3.64s-2.22,1.02-2.46,3.64Z"/>
    <path class="cls-2" d="m91.78,31.96v-4.89h-2.22c-.5,0-.59-.1-.59-.7v-1.72c0-.54.09-.67.59-.67h7.31c.44,0,.5.13.5.54v2.01c0,.45-.06.54-.5.54h-1.51v6.48c0,1.25-2.93,2.43-5.94,2.43-5.23,0-7.84-3.74-7.84-11.34s2.72-11.53,7.9-11.53c2.75,0,5.44,1.05,5.44,2.17v4.15c0,.42-.12.54-.5.54h-2.22c-.41,0-.5-.13-.5-.54v-2.52c-.92-.38-1.3-.48-1.98-.48-2.75,0-4.02,2.55-4.02,7.98s1.18,8.08,3.99,8.08c.74,0,1.39-.16,2.1-.54Z"/>
    <path class="cls-2" d="m111.6,27.61c0,5.17-2.46,8.37-6.33,8.37-4.08,0-6.45-3.1-6.45-8.4s2.48-8.37,6.45-8.37,6.33,3.13,6.33,8.4Zm-6.39,5.17c1.72,0,2.43-1.53,2.43-5.17s-.71-5.21-2.43-5.21-2.4,1.53-2.4,5.21.68,5.17,2.4,5.17Z"/>
    <path class="cls-2" d="m123.02,31.64v-8.94h-1.51c-.36,0-.41-.06-.41-.45v-2.08c0-.32.06-.42.41-.42h4.76c.41,0,.47.03.47.48v9.55c0,1.25.03,1.79.3,2.71h1.3c.35,0,.41.06.41.45v2.04c0,.35-.06.45-.41.45h-3.93c-.5,0-.59-.1-.83-1.34-1.48,1.44-2.48,1.88-4.14,1.88-3.08,0-4.23-1.56-4.23-5.75v-7.54h-1.51c-.35,0-.38-.06-.38-.45v-2.08c0-.32.03-.42.38-.42h4.79c.38,0,.44.03.44.48v9.39c0,2.46.41,3.16,1.72,3.16.8,0,1.51-.32,2.37-1.15Z"/>
    <path class="cls-2" d="m139.64,23.59c-.24,1.98-.3,2.55-.53,3.64l-1.72,7.98c-.12.45-.15.45-.56.45h-2.37q-.44,0-.53-.45l-3.02-12.52h-.98c-.35,0-.38-.06-.38-.45v-2.08c0-.32.03-.42.38-.42h3.49c.38,0,.44.03.53.48l1.36,6.99c.21,1.31.41,2.71.62,5.01.18-2.33.33-3.58.53-4.57l1.42-7.44c.09-.45.15-.48.56-.48h2.66c.38,0,.44.03.5.48l1.3,7.12c.15.77.36,2.33.5,3.9l.09.99c.21-2.55.41-4.12.65-5.27l1.48-6.74c.09-.45.15-.48.53-.48h3.28c.36,0,.38.1.38.42v2.08c0,.38-.03.45-.38.45h-1l-3.46,12.52c-.12.45-.18.45-.56.45h-2.42c-.38,0-.5-.06-.53-.45l-1.42-8.08c-.06-.45-.21-1.37-.27-1.95l-.03-.83-.12-.77Z"/>
    <path class="cls-2" d="m157.62,22.35c-.68-.1-.86-.1-1.12-.1-1.24,0-1.89.54-1.89,1.63,0,.86.29,1.15,1.95,1.85,3.73,1.5,4.67,2.55,4.67,5.14,0,3.03-2.01,5.11-4.97,5.11-1.51,0-3.28-.45-4.79-1.18-.38-.16-.44-.29-.44-.67v-3.48c0-.32.09-.41.38-.41h2.01c.36,0,.41.1.41.54v1.69c1.09.32,1.42.42,2.07.42,1.21,0,1.86-.61,1.86-1.69,0-.86-.35-1.18-2.34-1.98-3.46-1.44-4.32-2.39-4.32-4.85,0-2.97,2.16-5.14,5.23-5.14,2.22,0,4.08.64,4.08,1.47v3.26c0,.38-.06.41-.41.41h-2.01c-.29,0-.38-.03-.38-.41v-1.6Z"/>
    <path class="cls-2" d="m164.42,19.76v-4.02c0-.45.06-.48.5-.54l2.72-.45h.27c.21,0,.3.13.3.54v4.47h3.31c.41,0,.5.03.5.32v.26l-.38,1.85c-.12.38-.21.51-.56.51h-2.87v8.18c0,1.15.24,1.6,1.06,1.6.53,0,1.01-.13,1.95-.54.09-.06.21-.06.24-.06.18,0,.27.1.33.32l.44,2.24.06.16c0,.06.03.1.03.16,0,.22-.15.38-.44.54-1.01.41-2.31.7-3.43.7-2.81,0-4.02-1.47-4.02-4.98v-8.3h-2.01c-.38,0-.47-.06-.47-.54v-1.85c0-.51.03-.54.47-.54h2.01Z"/>
    <path class="cls-2" d="m178.91,24.33v8.17h1.6c.3,0,.41.06.41.45v2.04c0,.38-.12.45-.41.45h-6.89c-.3,0-.41-.06-.41-.45v-2.04c0-.38.12-.45.41-.45h1.51v-7.09c0-1.28-.06-1.76-.24-2.71l-1.48.03c-.3,0-.38-.1-.38-.48v-2.08c0-.32.09-.42.38-.42h3.82c.56,0,.71.26,1.12,1.95l.29-.38c1.21-1.56,2.07-2.11,3.37-2.11.92,0,1.71.32,1.71.7,0,.1-.06.22-.12.32l-.86,2.62c-.09.19-.15.26-.3.26-.03,0-.09,0-.15-.06-.36-.16-.86-.26-1.21-.26-.59,0-1.24.45-2.19,1.53Z"/>
    <path class="cls-2" d="m192.13,25.73v-.99c0-1.85-.5-2.43-2.07-2.43-.89,0-2.01.32-3.37.86-.09.06-.18.1-.29.1-.15,0-.24-.1-.3-.32l-.59-1.88c-.06-.22-.12-.29-.12-.35,0-.19.12-.38.35-.48,1.12-.61,3.13-1.02,4.82-1.02,3.52,0,5.09,1.56,5.09,5.11v5.46c0,1.21.06,1.76.27,2.71h1.33c.33,0,.41.06.41.45v2.04c0,.38-.09.45-.41.45h-3.7c-.5,0-.65-.22-.92-1.34-1.24,1.28-2.25,1.79-3.76,1.79-2.72,0-4.44-1.85-4.44-4.79,0-3.7,2.22-5.33,7.39-5.37h.3Zm0,2.59h-.41c-2.54,0-3.7.83-3.7,2.55,0,1.25.8,2.17,1.89,2.17.77,0,1.51-.41,2.22-1.25v-3.48Z"/>
    <path class="cls-2" d="m206.86,25.73v-.99c0-1.85-.5-2.43-2.07-2.43-.89,0-2.01.32-3.37.86-.09.06-.18.1-.29.1-.15,0-.24-.1-.3-.32l-.59-1.88c-.06-.22-.12-.29-.12-.35,0-.19.12-.38.35-.48,1.12-.61,3.13-1.02,4.82-1.02,3.52,0,5.09,1.56,5.09,5.11v5.46c0,1.21.06,1.76.27,2.71h1.33c.33,0,.41.06.41.45v2.04c0,.38-.09.45-.41.45h-3.7c-.5,0-.65-.22-.92-1.34-1.24,1.28-2.25,1.79-3.76,1.79-2.72,0-4.44-1.85-4.44-4.79,0-3.7,2.22-5.33,7.39-5.37h.3Zm0,2.59h-.41c-2.54,0-3.7.83-3.7,2.55,0,1.25.8,2.17,1.89,2.17.77,0,1.51-.41,2.22-1.25v-3.48Z"/>
    <path class="cls-2" d="m215.14,19.76v-4.02c0-.45.06-.48.5-.54l2.72-.45h.27c.21,0,.3.13.3.54v4.47h3.31c.41,0,.5.03.5.32v.26l-.38,1.85c-.12.38-.21.51-.56.51h-2.87v8.18c0,1.15.24,1.6,1.06,1.6.53,0,1.01-.13,1.95-.54.09-.06.21-.06.24-.06.18,0,.27.1.33.32l.44,2.24.06.16c0,.06.03.1.03.16,0,.22-.15.38-.44.54-1.01.41-2.31.7-3.43.7-2.81,0-4.02-1.47-4.02-4.98v-8.3h-2.01c-.38,0-.47-.06-.47-.54v-1.85c0-.51.03-.54.47-.54h2.01Z"/>
  </g>
</svg>